<svg width="360" height="361" viewBox="0 0 360 361" fill="none" xmlns="http://www.w3.org/2000/svg">
<path fill-rule="evenodd" clip-rule="evenodd" d="M0 0.280273C49.7056 0.280273 90 40.5745 90 90.2803C40.2944 90.2803 0 49.986 0 0.280273ZM180 0.280273C130.294 0.280273 90 40.5745 90 90.2803C40.2944 90.2803 0 130.575 0 180.28C0 229.985 40.2944 270.28 90 270.28C40.2944 270.28 0 310.575 0 360.28C49.7056 360.28 90 319.985 90 270.28C90 319.985 130.294 360.28 180 360.28C229.705 360.28 270 319.985 270 270.28C270 319.985 310.295 360.28 360 360.28C360 310.575 319.705 270.28 270 270.28C319.705 270.28 360 229.985 360 180.28C360 130.575 319.705 90.2803 270 90.2803C319.705 90.2803 360 49.986 360 0.280273C310.295 0.280273 270 40.5745 270 90.2803C270 40.5745 229.705 0.280273 180 0.280273ZM270 270.28C270 220.575 229.705 180.28 180 180.28C180 229.985 220.295 270.28 270 270.28ZM180 180.28C229.705 180.28 270 139.986 270 90.2803C270 139.986 310.295 180.28 360 180.28C310.295 180.28 270 220.575 270 270.28C220.295 270.28 180 310.575 180 360.28C180 310.575 139.706 270.28 90 270.28C139.706 270.28 180 229.985 180 180.28ZM180 180.28C130.294 180.28 90 220.575 90 270.28C90 220.575 49.7056 180.28 0 180.28C49.7056 180.28 90 139.986 90 90.2803C90 139.986 130.294 180.28 180 180.28ZM180 180.28C180 130.575 220.295 90.2803 270 90.2803C220.295 90.2803 180 49.986 180 0.280273C180 49.986 139.706 90.2803 90 90.2803C139.706 90.2803 180 130.575 180 180.28Z" fill="#BEDEB3"/>
</svg>
