<svg width="21" height="19" viewBox="0 0 21 19" fill="none" xmlns="http://www.w3.org/2000/svg">
<g clip-path="url(#clip0_221_393)">
<path d="M15.8125 0H5.1875C2.59867 0 0.5 1.99373 0.5 4.45312V14.5469C0.5 17.0063 2.59867 19 5.1875 19H15.8125C18.4013 19 20.5 17.0063 20.5 14.5469V4.45312C20.5 1.99373 18.4013 0 15.8125 0Z" fill="url(#paint0_radial_221_393)"/>
<path d="M15.8125 0H5.1875C2.59867 0 0.5 1.99373 0.5 4.45312V14.5469C0.5 17.0063 2.59867 19 5.1875 19H15.8125C18.4013 19 20.5 17.0063 20.5 14.5469V4.45312C20.5 1.99373 18.4013 0 15.8125 0Z" fill="url(#paint1_radial_221_393)"/>
<path d="M10.5007 2.07812C8.37898 2.07812 8.11266 2.08696 7.27938 2.12295C6.44766 2.15917 5.87992 2.28423 5.3832 2.46777C4.8693 2.65733 4.43344 2.91093 3.99922 3.32359C3.56461 3.73617 3.29766 4.15024 3.0975 4.63823C2.90375 5.11026 2.77195 5.64983 2.73453 6.43959C2.69727 7.23128 2.6875 7.48437 2.6875 9.50007C2.6875 11.5158 2.69688 11.768 2.73469 12.5596C2.77297 13.3497 2.90461 13.8891 3.09766 14.361C3.29734 14.8492 3.5643 15.2632 3.99867 15.6757C4.43281 16.0886 4.86867 16.3428 5.38219 16.5324C5.8793 16.7159 6.44711 16.841 7.27867 16.8772C8.11203 16.9132 8.37813 16.922 10.4998 16.922C12.6217 16.922 12.8872 16.9132 13.7205 16.8772C14.5522 16.841 15.1205 16.7159 15.6177 16.5324C16.1313 16.3428 16.5666 16.0886 17.0006 15.6757C17.4352 15.2632 17.7021 14.8492 17.9023 14.3612C18.0944 13.8891 18.2262 13.3496 18.2653 12.5597C18.3027 11.7681 18.3125 11.5158 18.3125 9.50007C18.3125 7.48437 18.3027 7.23143 18.2653 6.43974C18.2262 5.6496 18.0944 5.11033 17.9023 4.63845C17.7021 4.15024 17.4352 3.73617 17.0006 3.32359C16.5661 2.91078 16.1315 2.65718 15.6172 2.46785C15.1191 2.28423 14.5511 2.1591 13.7194 2.12295C12.886 2.08696 12.6207 2.07812 10.4983 2.07812H10.5007ZM9.79984 3.41562C10.0079 3.41532 10.24 3.41562 10.5007 3.41562C12.5867 3.41562 12.8339 3.42275 13.6577 3.4583C14.4194 3.4914 14.8328 3.6123 15.1082 3.71391C15.4728 3.84839 15.7327 4.00922 16.006 4.26906C16.2795 4.52883 16.4487 4.7762 16.5906 5.12258C16.6976 5.38383 16.825 5.77659 16.8597 6.50023C16.8971 7.28264 16.9052 7.51762 16.9052 9.49837C16.9052 11.4791 16.8971 11.7142 16.8597 12.4965C16.8248 13.2201 16.6976 13.6129 16.5906 13.8742C16.4491 14.2206 16.2795 14.4672 16.006 14.7269C15.7326 14.9866 15.473 15.1474 15.1082 15.2819C14.8331 15.384 14.4194 15.5046 13.6577 15.5377C12.8341 15.5732 12.5867 15.581 10.5007 15.581C8.41461 15.581 8.16734 15.5732 7.34383 15.5377C6.58211 15.5043 6.16867 15.3834 5.89305 15.2818C5.52852 15.1472 5.26805 14.9865 4.99461 14.7267C4.72117 14.4669 4.55195 14.2202 4.41 13.8736C4.30305 13.6123 4.17562 13.2195 4.14094 12.4959C4.10352 11.7135 4.09602 11.4785 4.09602 9.49651C4.09602 7.51457 4.10352 7.28078 4.14094 6.49837C4.17578 5.77474 4.30305 5.38197 4.41 5.12035C4.55164 4.77397 4.72117 4.5266 4.99469 4.26684C5.26813 4.00707 5.52852 3.84624 5.89312 3.71146C6.16852 3.60941 6.58211 3.4888 7.34383 3.45555C8.06453 3.4246 8.34383 3.41532 9.79984 3.41377V3.41562ZM14.671 4.64795C14.1534 4.64795 13.7335 5.0465 13.7335 5.53828C13.7335 6.02998 14.1534 6.4289 14.671 6.4289C15.1886 6.4289 15.6085 6.02998 15.6085 5.53828C15.6085 5.04658 15.1886 4.64765 14.671 4.64765V4.64795ZM10.5007 5.68857C8.28508 5.68857 6.48867 7.39516 6.48867 9.50007C6.48867 11.605 8.28508 13.3108 10.5007 13.3108C12.7164 13.3108 14.5122 11.605 14.5122 9.50007C14.5122 7.39523 12.7163 5.68857 10.5005 5.68857H10.5007ZM10.5007 7.02607C11.9389 7.02607 13.1049 8.13363 13.1049 9.50007C13.1049 10.8664 11.9389 11.9741 10.5007 11.9741C9.06242 11.9741 7.89656 10.8664 7.89656 9.50007C7.89656 8.13363 9.06242 7.02607 10.5007 7.02607Z" fill="white"/>
</g>
<defs>
<radialGradient id="paint0_radial_221_393" cx="0" cy="0" r="1" gradientUnits="userSpaceOnUse" gradientTransform="translate(5.8125 20.4634) rotate(-90) scale(18.8304 18.4355)">
<stop stop-color="#FFDD55"/>
<stop offset="0.1" stop-color="#FFDD55"/>
<stop offset="0.5" stop-color="#FF543E"/>
<stop offset="1" stop-color="#C837AB"/>
</radialGradient>
<radialGradient id="paint1_radial_221_393" cx="0" cy="0" r="1" gradientUnits="userSpaceOnUse" gradientTransform="translate(-2.85008 1.36867) rotate(78.1018) scale(8.43479 36.4467)">
<stop stop-color="#3771C8"/>
<stop offset="0.128" stop-color="#3771C8"/>
<stop offset="1" stop-color="#6600FF" stop-opacity="0"/>
</radialGradient>
<clipPath id="clip0_221_393">
<rect width="20" height="19" fill="white" transform="translate(0.5)"/>
</clipPath>
</defs>
</svg>
