<svg width="30" height="31" viewBox="0 0 30 31" fill="none" xmlns="http://www.w3.org/2000/svg">
<circle cx="15" cy="15.5" r="15" fill="#B7D9AC"/>
<path d="M19.6818 14.8101L12.7156 8.17262C12.5994 8.06181 12.4449 8 12.2843 8C12.1238 8 11.9693 8.06181 11.8531 8.17262L11.8456 8.18012C11.789 8.23384 11.744 8.29849 11.7133 8.37016C11.6825 8.44183 11.6666 8.519 11.6666 8.59699C11.6666 8.67499 11.6825 8.75216 11.7133 8.82383C11.744 8.89549 11.789 8.96015 11.8456 9.01387L18.4056 15.2639L11.8456 21.5114C11.789 21.5651 11.744 21.6297 11.7133 21.7014C11.6825 21.7731 11.6666 21.8503 11.6666 21.9282C11.6666 22.0062 11.6825 22.0834 11.7133 22.1551C11.744 22.2267 11.789 22.2914 11.8456 22.3451L11.8531 22.3526C11.9693 22.4634 12.1238 22.5252 12.2843 22.5252C12.4449 22.5252 12.5994 22.4634 12.7156 22.3526L19.6818 15.7151C19.7431 15.6567 19.7919 15.5865 19.8252 15.5088C19.8585 15.431 19.8757 15.3472 19.8757 15.2626C19.8757 15.178 19.8585 15.0943 19.8252 15.0165C19.7919 14.9387 19.7431 14.8685 19.6818 14.8101Z" fill="white"/>
</svg>
