<svg width="30" height="31" viewBox="0 0 30 31" fill="none" xmlns="http://www.w3.org/2000/svg">
<circle cx="15" cy="15.5" r="15" transform="rotate(-180 15 15.5)" fill="#B7D9AC"/>
<path d="M10.3182 16.1899L17.2844 22.8274C17.4007 22.9382 17.5551 23 17.7157 23C17.8763 23 18.0307 22.9382 18.1469 22.8274L18.1544 22.8199C18.211 22.7662 18.256 22.7015 18.2868 22.6298C18.3175 22.5582 18.3334 22.481 18.3334 22.403C18.3334 22.325 18.3175 22.2478 18.2868 22.1762C18.256 22.1045 18.211 22.0398 18.1544 21.9861L11.5944 15.7361L18.1544 9.48863C18.211 9.43492 18.256 9.37026 18.2868 9.29859C18.3175 9.22692 18.3334 9.14975 18.3334 9.07176C18.3334 8.99377 18.3175 8.91659 18.2868 8.84492C18.256 8.77326 18.211 8.7086 18.1544 8.65488L18.1469 8.64738C18.0307 8.53658 17.8763 8.47476 17.7157 8.47476C17.5551 8.47476 17.4007 8.53658 17.2844 8.64738L10.3182 15.2849C10.2569 15.3433 10.2082 15.4135 10.1748 15.4912C10.1415 15.569 10.1243 15.6528 10.1243 15.7374C10.1243 15.822 10.1415 15.9057 10.1748 15.9835C10.2082 16.0613 10.2569 16.1315 10.3182 16.1899Z" fill="white"/>
</svg>
